<?xml version="1.0" encoding="utf-8"?>
<!-- Generator: Adobe Illustrator 21.1.0, SVG Export Plug-In . SVG Version: 6.00 Build 0)  -->
<svg version="1.1" id="Слой_1" xmlns="http://www.w3.org/2000/svg" xmlns:xlink="http://www.w3.org/1999/xlink" x="0px" y="0px"
	 viewBox="0 0 240 240" style="enable-background:new 0 0 240 240;" xml:space="preserve">
<style type="text/css">
	.st0{fill:#E32028;}
</style>
<g>
	<path class="st0" d="M144.3,133.4c-0.9,0-1.7,0.4-2.2,1.1s-0.8,1.8-0.8,3.3c0,1.3,0.3,2.3,0.8,3.1s1.3,1.1,2.3,1.1s1.7-0.4,2.2-1.1
		s0.8-1.8,0.8-3.3c0-1.3-0.3-2.3-0.8-3S145.2,133.4,144.3,133.4z"/>
	<path class="st0" d="M120.1,110.6c-0.5,0.4-0.8,0.9-0.8,1.6c0,0.5,0.2,1,0.5,1.3s0.8,0.5,1.5,0.5c0.6,0,1.1-0.1,1.6-0.4
		s0.9-0.6,1.1-1.1V110h-1.5C121.5,110,120.7,110.2,120.1,110.6z"/>
	<path class="st0" d="M89,105.4c-0.9,0-1.6,0.4-2.1,1.1s-0.8,1.8-0.8,3.3c0,1.3,0.2,2.3,0.7,3s1.2,1.1,2.1,1.1c1.2,0,2-0.5,2.6-1.6
		v-5.4C91,105.9,90.2,105.4,89,105.4z"/>
	<polygon class="st0" points="71.9,109.6 76.8,109.6 74.4,102.6 	"/>
	<path class="st0" d="M123,133.4c-0.9,0-1.7,0.4-2.2,1.1s-0.8,1.8-0.8,3.3c0,1.3,0.3,2.3,0.8,3.1s1.3,1.1,2.3,1.1s1.7-0.4,2.2-1.1
		s0.8-1.8,0.8-3.3c0-1.3-0.3-2.3-0.8-3S123.9,133.4,123,133.4z"/>
	<path class="st0" d="M120,0C53.7,0,0,53.7,0,120s53.7,120,120,120s120-53.7,120-120S186.3,0,120,0z M98.2,104.9
		c0.9-1.2,2.1-1.8,3.6-1.8c1.3,0,2.4,0.5,3.3,1.4V98h2.8v18h-2.6l-0.1-1.3c-0.9,1-2,1.5-3.4,1.5c-1.5,0-2.7-0.6-3.6-1.8
		s-1.4-2.8-1.4-4.9C96.8,107.6,97.3,106,98.2,104.9z M79.1,116l-1.4-4h-6.6l-1.4,4h-3.1L73,98.9h2.7l6.5,17.1H79.1z M84.7,114.4
		c-0.9-1.2-1.4-2.8-1.4-4.9c0-2,0.5-3.5,1.4-4.7s2.1-1.8,3.6-1.8c1.3,0,2.4,0.5,3.3,1.4V98h2.8v18h-2.6l-0.1-1.3
		c-0.9,1-2,1.5-3.4,1.5C86.8,116.2,85.6,115.6,84.7,114.4z M101.9,137.8c0,2-0.4,3.5-1.3,4.7s-2.1,1.8-3.6,1.8
		c-1.4,0-2.5-0.5-3.3-1.4v6h-2.8v-17.6h2.6l0.1,1.3c0.8-1,2-1.5,3.4-1.5c1.5,0,2.8,0.6,3.6,1.7s1.3,2.8,1.3,4.8V137.8z M114.7,144
		h-2.8v-8.2c0-0.9-0.2-1.5-0.6-1.9s-0.9-0.5-1.7-0.5c-1.1,0-2,0.5-2.6,1.5v9.1h-2.8v-18h2.8v6.7c0.9-1.1,2.1-1.6,3.5-1.6
		c2.7,0,4.1,1.5,4.1,4.6V144z M123.5,105.8c-0.4-0.4-0.9-0.6-1.7-0.6c-0.6,0-1.2,0.2-1.6,0.5s-0.6,0.7-0.6,1.2h-2.8
		c0-0.7,0.2-1.3,0.7-2s1.1-1.1,1.9-1.4s1.7-0.5,2.7-0.5c1.5,0,2.7,0.4,3.6,1.1s1.3,1.8,1.4,3.1v5.7c0,1.1,0.2,2.1,0.5,2.7v0.2h-2.9
		c-0.1-0.2-0.2-0.6-0.3-1.2c-0.9,0.9-2,1.4-3.3,1.4c-1.3,0-2.3-0.4-3.1-1.1s-1.2-1.6-1.2-2.7c0-1.4,0.5-2.4,1.5-3.1s2.4-1.1,4.3-1.1
		h1.7v-0.8C124,106.8,123.9,106.2,123.5,105.8z M128.2,141.1c-0.5,1-1.2,1.7-2.1,2.3s-1.9,0.8-3.1,0.8c-1.8,0-3.2-0.6-4.3-1.8
		s-1.6-2.8-1.6-4.8v-0.1c0-1.2,0.2-2.4,0.7-3.4s1.2-1.8,2.1-2.3s1.9-0.8,3.1-0.8c1.7,0,3.1,0.6,4.2,1.7s1.6,2.6,1.7,4.4l0,0.7
		C128.9,139,128.6,140.2,128.2,141.1z M137.2,144c-0.6,0.2-1.3,0.3-1.9,0.3c-2.2,0-3.3-1.2-3.3-3.6v-7.2h-2.1v-2.1h2.1v-3.1h2.8v3.1
		h2.2v2.1h-2.2v7.1c0,0.5,0.1,0.8,0.3,1s0.5,0.3,1,0.3c0.3,0,0.7,0,1-0.1V144z M134.6,116.2c-1,0-2-0.2-2.8-0.6s-1.4-0.9-1.9-1.5
		s-0.7-1.4-0.7-2.1h2.8c0,0.7,0.3,1.2,0.8,1.6s1.1,0.5,1.9,0.5c0.8,0,1.3-0.1,1.7-0.4s0.6-0.7,0.6-1.1c0-0.5-0.2-0.9-0.6-1.2
		s-1.1-0.5-2.1-0.7s-1.8-0.5-2.4-0.8c-1.4-0.7-2.1-1.7-2.1-3c0-1.1,0.5-2,1.4-2.7s2.1-1.1,3.5-1.1c1.5,0,2.7,0.4,3.7,1.1
		s1.4,1.7,1.4,2.9h-2.8c0-0.5-0.2-1-0.6-1.4s-0.9-0.5-1.6-0.5c-0.6,0-1.1,0.1-1.5,0.4s-0.6,0.7-0.6,1.2c0,0.4,0.2,0.8,0.6,1
		s1.1,0.5,2.2,0.7s2,0.5,2.6,0.9s1.1,0.7,1.4,1.2s0.5,1.1,0.5,1.7c0,1.1-0.5,2.1-1.4,2.8S136.2,116.2,134.6,116.2z M149.4,141.1
		c-0.5,1-1.2,1.7-2.1,2.3s-1.9,0.8-3.1,0.8c-1.8,0-3.2-0.6-4.3-1.8s-1.6-2.8-1.6-4.8v-0.1c0-1.2,0.2-2.4,0.7-3.4s1.2-1.8,2.1-2.3
		s1.9-0.8,3.1-0.8c1.7,0,3.1,0.6,4.2,1.7s1.6,2.6,1.7,4.4l0,0.7C150.2,139,149.9,140.2,149.4,141.1z M150.8,115.2
		c-0.9,0.7-2.2,1.1-3.7,1.1c-1,0-2-0.2-2.8-0.6s-1.4-0.9-1.9-1.5s-0.7-1.4-0.7-2.1h2.8c0,0.7,0.3,1.2,0.8,1.6s1.1,0.5,1.9,0.5
		c0.8,0,1.3-0.1,1.7-0.4s0.6-0.7,0.6-1.1c0-0.5-0.2-0.9-0.6-1.2s-1.1-0.5-2.1-0.7s-1.8-0.5-2.4-0.8c-1.4-0.7-2.1-1.7-2.1-3
		c0-1.1,0.5-2,1.4-2.7s2.1-1.1,3.5-1.1c1.5,0,2.7,0.4,3.7,1.1s1.4,1.7,1.4,2.9h-2.8c0-0.5-0.2-1-0.6-1.4s-0.9-0.5-1.6-0.5
		c-0.6,0-1.1,0.1-1.5,0.4s-0.6,0.7-0.6,1.2c0,0.4,0.2,0.8,0.6,1s1.1,0.5,2.2,0.7s2,0.5,2.6,0.9s1.1,0.7,1.4,1.2s0.5,1.1,0.5,1.7
		C152.2,113.5,151.7,114.5,150.8,115.2z M165.3,110.6H157c0.1,1,0.4,1.9,1,2.5s1.4,0.9,2.3,0.9c1.3,0,2.4-0.5,3.2-1.6l1.5,1.5
		c-0.5,0.8-1.2,1.3-2,1.8s-1.8,0.6-2.9,0.6c-1.8,0-3.3-0.6-4.4-1.7s-1.7-2.7-1.7-4.5v-0.4c0-1.3,0.2-2.4,0.7-3.4s1.2-1.8,2.1-2.3
		s1.9-0.8,3-0.8c1.7,0,3.1,0.6,4,1.7s1.4,2.7,1.4,4.7V110.6z M173.4,116c-0.6,0.2-1.3,0.3-1.9,0.3c-2.2,0-3.3-1.2-3.3-3.6v-7.2h-2.1
		v-2.1h2.1v-3.1h2.8v3.1h2.2v2.1h-2.2v7.1c0,0.5,0.1,0.8,0.3,1s0.5,0.3,1,0.3c0.3,0,0.7,0,1-0.1V116z"/>
	<path class="st0" d="M102.5,113.9c1.2,0,2-0.5,2.6-1.6v-5.4c-0.5-1-1.4-1.5-2.5-1.5c-0.9,0-1.6,0.4-2.1,1.1s-0.8,1.8-0.8,3.3
		c0,1.3,0.2,2.3,0.7,3S101.6,113.9,102.5,113.9z"/>
	<path class="st0" d="M96.1,133.4c-1.2,0-2,0.5-2.5,1.4v5.6c0.5,1,1.4,1.5,2.5,1.5c0.9,0,1.6-0.4,2.1-1.1s0.8-1.8,0.8-3.3
		c0-1.3-0.3-2.3-0.8-3S97.1,133.4,96.1,133.4z"/>
	<path class="st0" d="M159.9,105.4c-0.8,0-1.4,0.3-1.9,0.8s-0.8,1.3-0.9,2.3h5.4v-0.2c-0.1-1-0.3-1.7-0.8-2.2
		S160.7,105.4,159.9,105.4z"/>
</g>
</svg>
