<?xml version="1.0" encoding="utf-8"?>
<!-- Generator: Adobe Illustrator 19.0.0, SVG Export Plug-In . SVG Version: 6.00 Build 0)  -->
<svg version="1.1" id="Слой_1" xmlns="http://www.w3.org/2000/svg" xmlns:xlink="http://www.w3.org/1999/xlink" x="0px" y="0px"
	 viewBox="0 0 120 120" style="enable-background:new 0 0 120 120;" xml:space="preserve">
<style type="text/css">
	.st0{fill:#222222;}
	.st1{fill:#BC2132;}
	.st2{fill:#FFFFFF;stroke:#FFFFFF;stroke-width:0.1;stroke-miterlimit:10;}
</style>
<g>
	<path id="XMLID_9_" class="st0" d="M95.1,35.1c0,19.4-29.6,39.5-35.1,84.9c-5.5-45.4-35.1-65.5-35.1-84.9S40.6,0,60,0
		S95.1,15.7,95.1,35.1z"/>
	<circle id="XMLID_8_" class="st1" cx="60" cy="34.6" r="29.4"/>
	<path class="st2" d="M73.2,30.7l-2-1.5c-0.4-0.4-0.6-0.6-1.3-0.7h-3.3c-0.6,0-1.1,0.5-1.1,1.1v1.1c0,0.7,0.5,1.1,1.1,1.1h5.5
		c2.8,0,5.2,2.7,5.5,5.5c0.1,0.7-1,0.7-1.1,0c-0.2-2.3-2.1-4.4-4.4-4.4h-5.5c-1.2,0-2.2-1-2.2-2.2v-1.1c0-1.2,1-2.2,2.2-2.2h3.3
		c0.9,0,1.4,0.4,2,1l2.4,2.3C74.7,31.2,73.6,31.2,73.2,30.7z M48.1,34.1c2.1,0,3.8,1.7,3.8,3.8s-1.7,3.8-3.8,3.8
		c-2.1,0-3.8-1.7-3.8-3.8C44.3,35.8,46,34.1,48.1,34.1z M48.1,35.1c-1.5,0-2.7,1.2-2.7,2.8c0,1.5,1.2,2.8,2.7,2.8
		c1.5,0,2.7-1.2,2.7-2.8C50.8,36.4,49.6,35.1,48.1,35.1z M72.1,34.1c2.1,0,3.8,1.7,3.8,3.8s-1.7,3.8-3.8,3.8c-2.1,0-3.8-1.7-3.8-3.8
		C68.3,35.8,70,34.1,72.1,34.1z M72.1,35.1c-1.5,0-2.7,1.2-2.7,2.8c0,1.5,1.2,2.8,2.7,2.8c1.5,0,2.7-1.2,2.7-2.8
		C74.8,36.4,73.6,35.1,72.1,35.1z M53.4,38.4h13.2c0.7,0,0.7,1.1,0,1.1H53.4C52.7,39.5,52.7,38.4,53.4,38.4z M53.4,30.7l3.1-2.3
		c0.6-0.6,1.4-1,2.4-1h2.2c1.2,0,2.2,1,2.2,2.2v1.1c0,1.2-1,2.2-2.2,2.2H47.9c-2.3,0-4.2,2.2-4.5,4.5c-0.1,0.7-1.1,0.6-1-0.1
		c0.3-2.8,2.7-5.4,5.5-5.4h13.2c0.6,0,1.1-0.4,1.1-1.1l0-1.2c0-0.6-0.5-1-1.1-1h-2.2c-0.7,0-1.2,0.2-1.7,0.7l-2.7,1.5
		C54,31.2,52.9,31.2,53.4,30.7z"/>
</g>
</svg>
